<?xml version="1.0" encoding="UTF-8"?>
<svg width="329px" height="329px" viewBox="0 0 329 329" version="1.1" xmlns="http://www.w3.org/2000/svg" xmlns:xlink="http://www.w3.org/1999/xlink">
    <!-- Generator: Sketch 50.2 (55047) - http://www.bohemiancoding.com/sketch -->
    <title>Group</title>
    <desc>Created with Sketch.</desc>
    <defs></defs>
    <g id="Page-1" stroke="none" stroke-width="1" fill="none" fill-rule="evenodd">
        <g id="Group" fill="#FFFFFF" fill-rule="nonzero">
            <polygon id="Shape" points="104.032 220.434 104.032 131.15 83.392 131.15 83.392 108.27 132.513 108.27 132.513 220.434"></polygon>
            <path d="M239.552,137.23 C239.552,146.99 234.272,155.63 225.472,160.431 C237.791,165.55 245.472,176.271 245.472,188.751 C245.472,208.911 227.551,221.712 199.551,221.712 C171.55,221.712 153.63,209.071 153.63,189.232 C153.63,176.431 161.95,165.55 174.91,160.431 C165.47,155.15 159.39,146.191 159.39,136.431 C159.39,118.509 175.071,107.15 199.391,107.15 C224.031,107.15 239.552,118.83 239.552,137.23 Z M180.51,186.352 C180.51,195.793 187.231,201.073 199.551,201.073 C211.871,201.073 218.751,195.954 218.751,186.352 C218.751,177.073 211.871,171.791 199.551,171.791 C187.23,171.791 180.51,177.072 180.51,186.352 Z M183.391,138.83 C183.391,146.832 189.151,151.31 199.551,151.31 C209.951,151.31 215.711,146.831 215.711,138.83 C215.711,130.512 209.951,125.871 199.551,125.871 C189.15,125.871 183.391,130.512 183.391,138.83 Z" id="Shape"></path>
            <path d="M292.864,120.932 C297.599,134.907 300.001,149.524 300.001,164.432 C300.001,239.184 239.185,300 164.432,300 C89.679,300 28.862,239.184 28.862,164.432 C28.862,89.678 89.678,28.864 164.431,28.864 C179.341,28.864 193.958,31.264 207.931,36.001 L207.931,5.832 C193.817,1.963 179.24,0 164.432,0 C73.765,0 0.001,73.764 0.001,164.432 C0.001,255.1 73.765,328.864 164.432,328.864 C255.099,328.864 328.862,255.1 328.862,164.432 C328.862,149.625 326.9,135.047 323.031,120.932 L292.864,120.932 Z" id="Shape"></path>
            <polygon id="Shape" points="284.659 44.111 284.659 12.582 261.987 12.582 261.987 44.111 230.647 44.111 230.647 66.781 261.987 66.781 261.987 98.309 284.659 98.309 284.659 66.781 316.186 66.781 316.186 44.111"></polygon>
        </g>
    </g>
</svg>