<?xml version="1.0" encoding="utf-8"?>
<!-- Generator: Adobe Illustrator 24.3.0, SVG Export Plug-In . SVG Version: 6.00 Build 0)  -->
<svg version="1.1" id="Layer_1" xmlns="http://www.w3.org/2000/svg" xmlns:xlink="http://www.w3.org/1999/xlink" x="0px" y="0px"
	 viewBox="0 0 25.7 25.7" style="enable-background:new 0 0 25.7 25.7;" xml:space="preserve">
<style type="text/css">
	.st0{opacity:0.8;}
	.st1{fill:#FFFFFF;}
</style>
<g id="Group_717" transform="translate(-0.002 0.006)" class="st0">
	<g id="Group_639" transform="translate(9.724 18.392)">
		<g id="Group_638">
			<path id="Path_1054" class="st1" d="M4.4,2.6L3.6,0.3C3.5,0.1,3.3-0.1,3.1,0C2.9,0.1,2.8,0.3,2.9,0.5l0,0l0.8,2.3
				c0.2,0.5-0.1,1.1-0.6,1.3l0,0l-2.8,1C0.1,5.2,0,5.4,0,5.6c0.1,0.2,0.2,0.3,0.4,0.3h0.1l2.8-1C4.2,4.5,4.7,3.5,4.4,2.6z"/>
		</g>
	</g>
	<g id="Group_641" transform="translate(0.002 10.033)">
		<g id="Group_640">
			<path id="Path_1055" class="st1" d="M9.2,14.1c-0.1-0.2-0.3-0.3-0.5-0.2l-2.9,1c-0.5,0.2-1.1-0.1-1.3-0.6l0,0L0.8,3.4
				C0.6,2.9,0.9,2.3,1.4,2.1l4-1.4c0.2-0.1,0.3-0.3,0.2-0.5C5.6,0.1,5.4,0,5.2,0l0,0l-4,1.4C0.3,1.7-0.2,2.7,0.1,3.6l0,0l3.8,10.9
				c0.3,0.9,1.3,1.4,2.2,1.1l0,0l2.9-1C9.2,14.5,9.3,14.3,9.2,14.1L9.2,14.1z"/>
		</g>
	</g>
	<g id="Group_643" transform="translate(3.69 15.158)">
		<g id="Group_642">
			<path id="Path_1056" class="st1" d="M5.6,3.1C5.4,3,5.1,3.1,5.1,3.3C4.9,3.8,4.6,4.2,4.3,4.5C2.7,4.3,1.4,3.2,0.8,1.8
				C0.7,1.5,0.7,1.1,1,0.9c0.2-0.1,0.4-0.2,0.6-0.2C1.8,0.8,2,0.7,2,0.4C2,0.2,1.9,0,1.7,0l0,0C1.3,0,0.9,0.1,0.5,0.3
				C0,0.7-0.1,1.4,0.1,2c0.3,0.8,0.8,1.6,1.4,2.1c0.8,0.7,1.8,1.1,2.8,1.2l0,0c0.1,0,0.2,0,0.3-0.1c0.5-0.5,0.8-1,1.1-1.6
				C5.8,3.4,5.8,3.2,5.6,3.1L5.6,3.1z"/>
		</g>
	</g>
	<g id="Group_647" transform="translate(5.967 3)">
		<g id="Group_646">
			<path id="Path_1058" class="st1" d="M10.5,12.9c-0.2,0-0.4,0.2-0.4,0.4c0,0.5-0.4,1-1,1H1.7c-0.5,0-1-0.4-1-1V1.8
				c0-0.5,0.4-1,1-1h6c0.2,0,0.4-0.2,0.4-0.4C8.1,0.2,8,0,7.8,0l0,0h-6C0.8,0,0,0.8,0,1.8v11.5c0,1,0.8,1.7,1.7,1.7h7.4
				c1,0,1.7-0.8,1.7-1.7C10.9,13.1,10.7,12.9,10.5,12.9L10.5,12.9z"/>
		</g>
	</g>
	<g id="Group_649" transform="translate(8.512 6.856)">
		<g id="Group_648">
			<path id="Path_1059" class="st1" d="M4.2,1.1C3.8,0.6,3.3,0.3,2.8,0C2.7,0,2.6,0,2.5,0C1.7,0.4,1,1,0.6,1.8C0.2,2.4,0,3.1,0,3.9
				C0,4.5,0.3,5,0.9,5.1c0.1,0,0.3,0.1,0.4,0.1C1.5,5.2,1.8,5.1,2,5c0.1-0.1,0.2-0.1,0.3-0.2V6H1.5C1.2,6,1.1,6.1,1.1,6.3
				s0.2,0.4,0.4,0.4l0,0h1.3c0.2,0,0.4-0.2,0.4-0.4C3.2,6.2,3.1,6.1,3,6V4.8c0.2,0.1,0.4,0.1,0.5-0.1s0.1-0.4,0-0.5
				C3.3,3.9,3.1,3.6,3,3.3C2.9,3.1,2.7,2.9,2.5,3C2.4,3,2.3,3.1,2.3,3.3c-0.1,0.4-0.4,0.8-0.7,1C1.4,4.4,1.2,4.4,1.1,4.4
				C0.8,4.3,0.8,4,0.8,3.8c0-1.3,0.7-2.4,1.9-3C3,1,3.3,1.3,3.6,1.6c0.1,0.2,0.4,0.2,0.5,0C4.3,1.5,4.3,1.2,4.2,1.1L4.2,1.1z"/>
		</g>
	</g>
	<g id="Group_653" transform="translate(12.113 -0.006)">
		<g id="Group_652">
			<path id="Path_1061" class="st1" d="M13.3,2.8c-0.2-0.4-0.6-0.7-1.1-0.8L5.1,0.1C4.2-0.2,3.3,0.4,3,1.3L0.1,12.4
				c-0.2,0.9,0.3,1.9,1.2,2.1l7.1,1.9c0.1,0,0.3,0.1,0.4,0.1c0.8,0,1.5-0.5,1.7-1.3l1.1-4.2c0-0.2-0.1-0.4-0.3-0.5
				c-0.2,0-0.4,0.1-0.4,0.3L9.8,15c-0.1,0.5-0.7,0.8-1.2,0.7l0,0l-7.1-1.9c-0.5-0.1-0.8-0.7-0.7-1.2L3.7,1.5C3.9,1,4.4,0.7,4.9,0.8
				l0,0L12,2.7c0.5,0.1,0.8,0.7,0.7,1.2l0,0l-1.5,5.5c0,0.2,0.1,0.4,0.3,0.5c0.2,0,0.4-0.1,0.4-0.3l1.5-5.5
				C13.6,3.6,13.6,3.1,13.3,2.8z"/>
		</g>
	</g>
	<g id="Group_659" transform="translate(15.498 4.862)">
		<g id="Group_658">
			<path id="Path_1064" class="st1" d="M6.7,3.9C5.5,3,4.8,1.7,4.6,0.3C4.5,0.1,4.3,0,4.1,0C4,0,4,0.1,3.9,0.1C3,1.2,1.7,2,0.3,2.2
				C0.1,2.3,0,2.5,0,2.7c0,0.1,0.1,0.2,0.1,0.2C1.2,3.8,2,5.1,2.2,6.5c0,0.1,0.1,0.3,0.3,0.3h0.1c0.1,0,0.2,0,0.3-0.1
				c0.9-1.1,2.2-1.8,3.6-2.1c0.1,0,0.3-0.1,0.3-0.3S6.8,4,6.7,3.9z M2.8,5.6c-0.3-1.1-0.9-2-1.6-2.8c1.1-0.3,2-0.9,2.8-1.6
				c0.3,1.1,0.9,2,1.6,2.8C4.6,4.3,3.6,4.8,2.8,5.6z"/>
		</g>
	</g>
</g>
</svg>
