<?xml version="1.0" encoding="utf-8"?>
<!-- Generator: Adobe Illustrator 24.3.0, SVG Export Plug-In . SVG Version: 6.00 Build 0)  -->
<svg version="1.1" id="Layer_1" xmlns="http://www.w3.org/2000/svg" xmlns:xlink="http://www.w3.org/1999/xlink" x="0px" y="0px"
	 viewBox="0 0 26.8 26" style="enable-background:new 0 0 26.8 26;" xml:space="preserve">
<style type="text/css">
	.st0{opacity:0.8;}
	.st1{fill:#FFFFFF;}
</style>
<g id="Group_778" transform="translate(15.726 -485.995)" class="st0">
	<path id="Path_1162" class="st1" d="M-7.9,504.3l-6.8,6.8c-0.2,0.2-0.2,0.5,0,0.7l0,0c0.1,0.1,0.2,0.1,0.4,0.1
		c0.1,0,0.3-0.1,0.4-0.1l6.8-6.8c0.2-0.2,0.2-0.5,0-0.7C-7.4,504.1-7.7,504.1-7.9,504.3L-7.9,504.3z"/>
	<path id="Path_1163" class="st1" d="M-1.8,505.4l-3.7,3.7c-0.2,0.2-0.2,0.5,0,0.7l0,0c0.1,0.1,0.2,0.1,0.4,0.1s0.3-0.1,0.4-0.1
		l4.4-4.4L-1.8,505.4z"/>
	<path id="Path_1164" class="st1" d="M-8.7,498.3l-6.8,6.8c-0.2,0.2-0.2,0.5,0,0.7c0.1,0.1,0.2,0.1,0.4,0.1s0.3-0.1,0.4-0.1l6.8-6.8
		c0.2-0.2,0.2-0.5,0-0.7C-8.2,498.1-8.5,498.1-8.7,498.3z"/>
	<path id="Path_1165" class="st1" d="M-6.5,510.4c-0.1,0-0.3,0.1-0.4,0.1c-0.1,0.1-0.1,0.2-0.1,0.4c0,0.1,0.1,0.3,0.1,0.4
		c0.1,0.1,0.2,0.1,0.4,0.1c0.1,0,0.3-0.1,0.4-0.1c0.1-0.1,0.1-0.2,0.1-0.4c0-0.1-0.1-0.3-0.1-0.4C-6.2,510.5-6.4,510.4-6.5,510.4z"
		/>
	<path id="Path_1161" class="st1" d="M-0.5,505.7c4.1,0.7,8.1-1.2,10.2-4.7c0,0,0-0.1,0.1-0.1c0.7-1.2,1.1-2.5,1.3-3.8l0,0
		c0-0.4,0.1-0.8,0.1-1.2c0-2.5-0.9-4.9-2.6-6.7l-0.1-0.1c-1.1-1.1-2.4-2-3.8-2.5H4.6c-1.1-0.4-2.2-0.6-3.3-0.6
		c-1.3,0-2.5,0.2-3.7,0.7h-0.1c-1.4,0.6-2.6,1.5-3.6,2.6l-0.1,0.1c-1.6,1.8-2.4,4.1-2.4,6.5c0,0.4,0,0.7,0.1,1.1l0,0
		c0.1,0.6,0.2,1.3,0.4,1.9l0.4,1c0.1,0.3,0.3,0.6,0.5,0.9c0,0,0,0.1,0.1,0.1c1.3,2.1,3.3,3.7,5.7,4.4 M-1.7,505.4l1.2,0.3
		 M5.3,500.9l-1.8-2.8l1-3l2.3-0.5l0.6-0.1l2.6,2.7c-0.2,1.1-0.5,2.1-1,3L5.3,500.9z M-1.2,498.1l-1.8,2.8l-3.6-0.7
		c-0.5-1-0.9-2-1-3.1l2.6-2.6l2.9,0.6l0.6,2L-1.2,498.1z M-6.2,490.9l0.5,2.9l-2,2C-7.7,494.1-7.2,492.4-6.2,490.9L-6.2,490.9z
		 M-0.3,497.7l-0.9-2.8l2.3-1.7l2.3,1.7l-0.9,2.8H-0.3z M10.1,495.8l-2-2l0.4-3C9.5,492.3,10,494,10.1,495.8L10.1,495.8z M7.5,489.7
		l-0.4,3.9L6,493.8l-1.8,0.4l-2.6-1.9v-2.8l2.8-2C5.6,488.1,6.6,488.8,7.5,489.7z M3.2,487.2l-2.1,1.5l-2.3-1.4
		C0.2,486.9,1.8,486.9,3.2,487.2L3.2,487.2z M-2.4,487.8l3.1,1.9v2.7l-1.8,1.3l-0.8,0.5l-2.9-0.6l-0.6-3.7
		C-4.6,489-3.6,488.3-2.4,487.8L-2.4,487.8z M-5.9,501.4l2.7,0.5l1.4,2.4C-3.4,503.8-4.8,502.8-5.9,501.4L-5.9,501.4z M-0.4,504.7
		l-1.9-3.2l1.8-2.8h3.1l1.8,2.8l-1.9,3.2C1.7,504.9,0.6,504.9-0.4,504.7L-0.4,504.7z M4,504.4l1.4-2.4l2.7-0.5
		C7.1,502.8,5.7,503.8,4,504.4L4,504.4z"/>
</g>
</svg>
